<svg width="219" height="287" viewBox="0 0 219 287" fill="none" xmlns="http://www.w3.org/2000/svg">
<path d="M57.4 2.87H160.72C190.836 2.87 215.25 27.2839 215.25 57.4V177.94C215.25 236.587 167.707 284.13 109.06 284.13C50.4129 284.13 2.87 236.587 2.87 177.94V57.4C2.87 27.2839 27.2839 2.87 57.4 2.87Z" fill="#B0ABAB"/>
<path d="M57.4 2.87H160.72C190.836 2.87 215.25 27.2839 215.25 57.4V177.94C215.25 236.587 167.707 284.13 109.06 284.13C50.4129 284.13 2.87 236.587 2.87 177.94V57.4C2.87 27.2839 27.2839 2.87 57.4 2.87Z" stroke="black" stroke-width="5.74"/>
<path d="M22.96 57.4H195.16V143.5C195.16 191.052 156.612 229.6 109.06 229.6V229.6C61.5083 229.6 22.96 191.052 22.96 143.5V57.4Z" fill="#FCE8D5"/>
<line x1="40.18" y1="83.23" x2="91.84" y2="83.23" stroke="#B0ABAB" stroke-width="5.74"/>
<line x1="120.54" y1="83.23" x2="172.2" y2="83.23" stroke="#B0ABAB" stroke-width="5.74"/>
<mask id="path-5-inside-1_86_698" fill="white">
<path d="M91.84 133.833L110.56 120.54L123.854 139.26L105.133 152.554L91.84 133.833Z"/>
</mask>
<path d="M91.84 133.833L110.56 120.54L123.854 139.26L105.133 152.554L91.84 133.833Z" fill="#FCE8D5"/>
<path d="M123.854 139.26L124.518 140.196L125.454 139.532L124.79 138.596L123.854 139.26ZM109.624 121.205L122.918 139.925L124.79 138.596L111.496 119.875L109.624 121.205ZM123.189 138.324L104.469 151.618L105.798 153.49L124.518 140.196L123.189 138.324Z" fill="black" mask="url(#path-5-inside-1_86_698)"/>
<circle cx="66.01" cy="106.19" r="14.35" fill="white"/>
<circle cx="146.37" cy="106.19" r="14.35" fill="white"/>
<circle cx="137.76" cy="109.06" r="5.74" fill="#454545"/>
<circle cx="74.62" cy="109.06" r="5.74" fill="#454545"/>
<path d="M91.9587 180.309C105.033 180.446 117.53 184.601 129.824 188.596" stroke="#454545" stroke-width="11.48" stroke-linecap="round"/>
</svg>
