<?xml version="1.0" standalone="no"?>
<!DOCTYPE svg PUBLIC "-//W3C//DTD SVG 20010904//EN"
 "http://www.w3.org/TR/2001/REC-SVG-20010904/DTD/svg10.dtd">
<svg version="1.0" xmlns="http://www.w3.org/2000/svg"
 width="1148.000000pt" height="1148.000000pt" viewBox="0 0 1148.000000 1148.000000"
 preserveAspectRatio="xMidYMid meet">
<metadata>
Created by potrace 1.14, written by Peter Selinger 2001-2017
</metadata>
<g transform="translate(0.000000,1148.000000) scale(0.100000,-0.100000)"
fill="#000000" stroke="none">
<path d="M3479 11476 c-2 -3 -29 -7 -59 -10 -111 -10 -143 -15 -189 -25 -25
-6 -57 -13 -71 -15 -50 -10 -146 -35 -175 -46 -17 -7 -37 -13 -45 -15 -54 -12
-285 -108 -305 -126 -5 -5 -17 -9 -27 -9 -10 0 -18 -4 -18 -9 0 -5 -13 -13
-28 -19 -16 -5 -36 -17 -45 -27 -9 -9 -17 -14 -17 -11 0 6 -127 -73 -170 -106
-14 -10 -43 -33 -65 -49 -224 -169 -471 -447 -586 -659 -13 -25 -27 -47 -30
-50 -6 -5 -109 -216 -109 -224 0 -2 -8 -21 -17 -42 -9 -22 -17 -41 -18 -44 -2
-7 -15 -41 -25 -66 -11 -28 -67 -241 -74 -279 -3 -16 -8 -43 -11 -60 -4 -16
-8 -46 -10 -65 -2 -19 -4 -35 -5 -35 -16 0 -23 -5307 -7 -5465 4 -41 10 -100
13 -130 9 -92 12 -111 29 -215 9 -55 18 -111 20 -125 2 -14 4 -25 5 -25 1 0 4
-13 6 -30 3 -16 14 -66 25 -110 11 -44 22 -89 24 -100 2 -11 9 -38 15 -60 6
-22 13 -47 15 -55 2 -8 4 -15 5 -15 1 0 3 -8 6 -17 2 -10 6 -26 8 -35 3 -10 5
-18 6 -18 1 0 3 -7 5 -15 1 -8 19 -62 40 -120 20 -58 37 -109 38 -115 2 -5 5
-15 9 -20 4 -6 18 -41 32 -78 48 -129 165 -370 254 -527 67 -117 198 -323 236
-371 12 -14 28 -36 36 -49 23 -35 204 -262 233 -293 15 -15 27 -30 27 -32 0
-8 323 -328 375 -373 28 -23 59 -51 70 -61 37 -34 209 -167 275 -212 35 -24
71 -50 78 -57 7 -6 23 -17 35 -23 11 -7 26 -16 31 -21 6 -5 45 -29 86 -55 41
-25 86 -53 100 -62 14 -8 27 -16 30 -16 3 0 16 -7 30 -16 63 -37 88 -51 125
-69 22 -11 47 -24 55 -30 8 -5 60 -30 115 -55 55 -25 114 -52 130 -60 57 -27
263 -105 277 -105 8 0 18 -4 23 -8 8 -7 106 -41 138 -48 4 -1 8 -2 10 -4 3 -2
23 -7 62 -15 16 -3 35 -11 42 -17 7 -6 13 -8 13 -5 0 3 15 1 33 -4 17 -6 43
-12 57 -15 14 -3 39 -9 55 -14 53 -16 338 -71 390 -75 28 -1 50 -4 50 -5 0 -3
8 -4 90 -13 197 -23 631 -30 830 -13 186 15 230 20 230 26 0 0 18 3 40 5 51 5
113 13 145 20 44 9 84 17 105 21 23 3 30 5 153 34 51 12 99 23 105 24 7 2 19
6 27 9 13 5 51 15 85 22 69 16 477 166 500 185 6 4 21 11 35 15 35 11 209 95
240 115 14 10 36 21 49 25 13 4 31 14 42 23 10 9 26 17 36 18 10 2 19 8 21 13
2 6 7 11 11 11 10 0 182 104 243 147 26 18 52 33 58 33 5 0 10 4 10 8 0 4 14
16 32 26 31 19 57 39 83 64 8 6 16 12 20 12 3 0 42 29 86 65 45 36 86 65 92
65 6 0 7 3 4 7 -4 3 6 16 22 27 105 78 481 450 481 477 0 4 6 12 13 16 16 10
126 144 167 203 8 12 23 32 34 43 32 37 221 327 281 432 66 115 208 404 208
422 0 7 4 13 9 13 4 0 8 7 8 15 0 8 4 23 10 33 16 28 70 171 101 267 16 50 32
97 36 105 3 8 7 20 9 25 1 6 12 44 24 85 11 41 22 82 24 91 3 9 9 33 14 53 6
20 8 36 6 36 -3 0 0 8 5 18 5 10 12 36 15 58 9 58 14 83 19 92 3 4 8 30 12 57
4 28 9 61 12 75 2 14 5 34 7 45 2 11 4 20 5 20 1 0 3 25 6 55 2 30 6 69 9 85
6 32 13 104 21 224 3 41 8 78 11 83 3 4 1 8 -5 8 -7 0 -7 9 -3 23 9 23 7 5074
-1 5187 -5 67 -15 144 -22 170 -2 8 -7 35 -10 59 -17 116 -89 353 -152 494
-68 154 -241 447 -264 447 -5 0 -9 5 -9 11 0 6 -21 36 -47 67 -27 31 -55 65
-63 75 -47 60 -193 197 -307 288 -114 93 -370 250 -429 265 -13 3 -24 10 -24
15 0 5 -3 8 -7 7 -5 -1 -26 6 -48 16 -46 20 -218 82 -235 84 -3 0 -17 5 -33
11 -15 6 -38 13 -50 15 -12 2 -40 9 -62 14 -65 18 -104 25 -190 37 -27 3 -63
9 -80 13 -34 6 -4559 15 -4566 8z"/>
</g>
</svg>
