<svg width="100" height="100" viewBox="0 0 35 35" fill="none" xmlns="http://www.w3.org/2000/svg">
<g clip-path="url(#clip0_79_571)">
<path d="M11.3246 9.48683L27.2964 22.4467L31.5256 31.8152C31.5256 31.8152 32.3731 32.1367 33.0002 31.3341C33.5296 30.6598 33.1943 29.7577 33.0291 29.3691C32.8638 28.9805 33.0055 28.2711 32.9797 27.5239C32.9589 26.9491 32.6409 25.6103 32.1947 24.7822C31.7486 23.9541 30.7173 22.3636 27.8276 19.6012C24.9379 16.8388 21.1889 13.4651 19.5714 12.1741C16.4915 9.7157 15.8723 9.35843 12.5914 7.23474C10.0261 5.57542 7.89671 4.6546 6.82055 4.23368C5.74439 3.81275 4.31472 3.21198 3.50185 3.40184C2.68897 3.5917 2.5853 4.3089 2.5853 4.3089L11.3246 9.48683Z" fill="#E38413"/>
<path d="M6.21313 13.4968C7.6943 15.3317 10.7465 18.0897 14.6815 21.3449C19.4662 25.3046 24.9738 29.3802 26.5681 30.1443C28.9919 31.3059 29.4784 31.0148 30.2067 31.3106C30.9351 31.6065 31.5862 32.2123 32.3834 31.7078C33.0236 31.3051 32.6434 30.318 32.3987 29.7687C32.2031 29.3318 32.265 28.6295 32.2614 27.7458C32.2529 26.2162 31.4599 24.4166 29.6113 22.3776C27.7627 20.3387 21.7897 15.0605 17.3628 11.4406C12.9359 7.82075 6.46791 4.62971 5.10531 4.06262C3.74271 3.49552 3.5242 3.398 3.29458 3.41132C3.06247 3.42477 1.98291 3.89553 2.49175 6.45287C3.0006 9.01021 4.75631 11.6931 6.21313 13.4968Z" fill="url(#paint0_radial_79_571)"/>
<path d="M3.45882 8.96613C3.56216 9.66883 4.63419 11.1418 5.04687 11.4784C6.36118 12.5517 7.57057 11.6852 7.54644 10.7075C7.49957 8.86211 6.2083 7.45198 5.05669 7.19819C3.6008 6.87941 3.31081 7.96802 3.45882 8.96613Z" fill="url(#paint1_radial_79_571)"/>
<path d="M8.74194 15.4337C9.09475 16.2497 10.595 17.5926 11.0186 17.9887C12.035 18.934 14.9635 19.4704 14.9532 16.3132C14.9441 13.7369 12.2704 10.7692 9.93961 11.4277C8.27385 11.8949 8.0013 13.7162 8.74194 15.4337Z" fill="url(#paint2_radial_79_571)"/>
<path d="M17.2331 21.2996C17.4127 22.4962 17.7258 23.4923 19.4414 24.4897C21.709 25.8081 23.6844 24.2011 23.6601 22.1842C23.6366 20.2673 22.3973 18.3708 20.4469 17.9881C18.2686 17.5634 16.9638 19.5047 17.2331 21.2996Z" fill="url(#paint3_radial_79_571)"/>
<path d="M24.019 26.3454C24.5179 27.9542 25.6429 29.3039 27.2041 30.1424C29.5096 31.3811 30.895 30.9151 31.2659 29.6666C31.6392 28.4179 29.6488 24.8396 27.1566 23.6217C24.1981 22.178 23.3972 24.3455 24.019 26.3454Z" fill="url(#paint4_radial_79_571)"/>
<path d="M11.3334 17.5874C11.0426 17.7545 10.2593 17.0286 9.36688 16.1062C8.47201 15.1839 7.06033 13.295 6.55882 11.5986C6.0071 9.72744 5.82521 7.32394 6.28433 7.25225C6.63671 7.19676 7.8204 8.91113 7.8204 8.91113L11.1431 16.2486C11.1431 16.2486 11.5903 17.4398 11.3334 17.5874Z" fill="#CE701B"/>
<path d="M8.30256 12.692C9.67449 15.4072 11.3229 16.8442 11.3229 16.8442C11.3229 16.8442 11.2227 14.3383 9.72229 11.0045C8.9117 9.2034 6.71868 7.53001 6.71868 7.53001C6.71868 7.53001 6.97856 10.0692 8.30256 12.692Z" fill="#FDCE8C"/>
<path d="M18.8365 22.5639C18.8365 22.5639 19.4858 23.6557 19.3998 23.9437C19.3163 24.2315 18.8557 23.9752 18.3354 23.6823C17.96 23.4712 16.1428 22.1466 15.103 20.6243C14.0004 19.0129 13.5349 17.3771 13.317 15.777C13.1178 14.3286 13.1318 12.5398 13.5708 12.8549C14.0517 13.2027 14.5268 13.5783 14.5268 13.5783L18.8365 22.5639Z" fill="#CE701B"/>
<path d="M15.575 19.2196C14.5128 17.0098 14.4061 16.1195 14.1656 15.0817C13.9228 14.0465 13.9315 13.1169 13.9315 13.1169C13.9315 13.1169 14.6397 13.6268 15.3022 14.2545C15.9646 14.8822 16.652 15.6813 16.7951 16.0762C16.9382 16.4711 17.7388 18.7486 18.1919 20.2999C18.5733 21.6101 19.2734 23.405 19.2734 23.405C19.2734 23.405 16.6996 21.5559 15.575 19.2196Z" fill="#FDCE8C"/>
<path d="M26.5843 29.2568C26.3 29.3209 23.8361 27.8986 22.4926 25.7177C21.1491 23.5368 21.0548 20.8302 21.0305 20.1505C21.0061 19.4708 21.0417 18.8326 21.3462 18.8576C21.6506 18.8825 21.8289 19.1927 21.8289 19.1927L26.6572 28.7443C26.6572 28.7443 26.8437 29.1967 26.5843 29.2568Z" fill="#CE701B"/>
<path d="M24.1747 26.3964C22.7689 24.6524 22.2958 22.7115 22.0433 21.3363C21.7806 19.9141 21.8188 19.1907 21.8188 19.1907C21.8188 19.1907 22.9741 20.1129 23.4367 20.6195C23.8591 21.0808 24.6528 21.9864 24.8581 22.4177C25.0006 22.715 25.5493 24.5788 25.7843 25.3916C26.0192 26.2044 26.678 28.8006 26.678 28.8006C26.678 28.8006 25.7641 28.3703 24.1747 26.3964Z" fill="#FDCE8C"/>
</g>
<defs>
<radialGradient id="paint0_radial_79_571" cx="0" cy="0" r="1" gradientUnits="userSpaceOnUse" gradientTransform="translate(14.5827 22.0139) rotate(-48.1231) scale(10.9415 27.2941)">
<stop offset="0.445" stop-color="#DB8316"/>
<stop offset="0.539" stop-color="#DF8A1B"/>
<stop offset="0.671" stop-color="#E99C2A"/>
<stop offset="0.79" stop-color="#F6B23B"/>
</radialGradient>
<radialGradient id="paint1_radial_79_571" cx="0" cy="0" r="1" gradientUnits="userSpaceOnUse" gradientTransform="translate(5.58374 9.58126) rotate(-130.188) scale(2.47975 1.56259)">
<stop offset="0.029" stop-color="#FBD8A9"/>
<stop offset="1" stop-color="#FBD8A9" stop-opacity="0"/>
</radialGradient>
<radialGradient id="paint2_radial_79_571" cx="0" cy="0" r="1" gradientUnits="userSpaceOnUse" gradientTransform="translate(11.7491 14.942) rotate(-121.318) scale(3.77357 2.65179)">
<stop offset="0.097" stop-color="#FDE5BF"/>
<stop offset="0.37" stop-color="#FCE1B9" stop-opacity="0.742"/>
<stop offset="0.716" stop-color="#FAD8A9" stop-opacity="0.416"/>
<stop offset="0.843" stop-color="#FCE0B6" stop-opacity="0.211"/>
<stop offset="0.974" stop-color="#FDE5BF" stop-opacity="0"/>
</radialGradient>
<radialGradient id="paint3_radial_79_571" cx="0" cy="0" r="1" gradientUnits="userSpaceOnUse" gradientTransform="translate(20.3555 21.38) rotate(-136.354) scale(3.40619 2.99734)">
<stop offset="0.188" stop-color="#FBD8A9"/>
<stop offset="0.977" stop-color="#FBD8A9" stop-opacity="0"/>
</radialGradient>
<radialGradient id="paint4_radial_79_571" cx="0" cy="0" r="1" gradientUnits="userSpaceOnUse" gradientTransform="translate(27.4458 27.0809) rotate(-135.645) scale(4.22861 2.36769)">
<stop stop-color="#FDE5BF"/>
<stop offset="1" stop-color="#FDE5BF" stop-opacity="0"/>
</radialGradient>
<clipPath id="clip0_79_571">
<rect width="32" height="32" fill="white" transform="translate(2.81097 34.5966) rotate(-93.3176)"/>
</clipPath>
</defs>
</svg>
