<svg width="25" height="20" viewBox="0 0 25 20" fill="none" xmlns="http://www.w3.org/2000/svg">
<path d="M21.1773 1.66804C19.5378 0.878562 17.8033 0.317605 16.0197 0C15.7976 0.413367 15.538 0.969347 15.359 1.41166C13.4359 1.11404 11.5306 1.11404 9.64287 1.41166C9.46396 0.969447 9.19853 0.413367 8.97431 0C7.18895 0.317744 5.45298 0.880129 3.81269 1.67216C0.548626 6.74844 -0.336237 11.6985 0.106146 16.5785C2.27109 18.2423 4.36913 19.2531 6.43183 19.9145C6.9445 19.189 7.39765 18.4209 7.78662 17.6181C7.04601 17.3279 6.33205 16.9703 5.65322 16.5495C5.83184 16.4133 6.00628 16.2712 6.17626 16.1237C10.2897 18.1038 14.7593 18.1038 18.8237 16.1237C18.9944 16.2703 19.1688 16.4123 19.3467 16.5495C18.6668 16.9715 17.9515 17.3298 17.2094 17.6202C17.6006 18.4262 18.0529 19.1951 18.5642 19.9165C20.6288 19.2552 22.7288 18.2444 24.8937 16.5785C25.4129 10.9214 24.007 6.01678 21.1773 1.66804ZM8.34706 13.5774C7.1122 13.5774 6.09951 12.391 6.09951 10.9462C6.09951 9.50151 7.09062 8.31306 8.34706 8.31306C9.60351 8.31306 10.6162 9.4994 10.5946 10.9462C10.5966 12.391 9.60361 13.5774 8.34706 13.5774ZM16.6528 13.5774C15.418 13.5774 14.4054 12.391 14.4054 10.9462C14.4054 9.50151 15.3964 8.31306 16.6528 8.31306C17.9094 8.31306 18.922 9.4994 18.9004 10.9462C18.9004 12.391 17.9094 13.5774 16.6528 13.5774Z" fill="white"/>
</svg>
